<svg width="32" height="32" viewBox="0 0 32 32" fill="none" xmlns="http://www.w3.org/2000/svg">
<rect width="32" height="32" rx="8" fill="#2563EB" fill-opacity="0.1"/>
<g clip-path="url(#clip0_47_2333)">
<path d="M15.4167 21.5417C14.0383 21.0262 12.8887 19.2623 12.3133 18.2291C12.0648 17.7831 12.1957 17.2351 12.5944 16.9162C13.0388 16.5606 13.6795 16.5961 14.0819 16.9985L14.5417 17.4583V14.1042C14.5417 13.7015 14.8682 13.375 15.2709 13.375C15.6736 13.375 16 13.7015 16 14.1042V15.8542C16 15.4515 16.3265 15.125 16.7292 15.125C17.1319 15.125 17.4584 15.4515 17.4584 15.8542V16.4375C17.4584 16.0348 17.7848 15.7083 18.1875 15.7083C18.5902 15.7083 18.9167 16.0348 18.9167 16.4375V17.0208C18.9167 16.6181 19.2432 16.2917 19.6459 16.2917C20.0486 16.2917 20.375 16.6181 20.375 17.0208V19.3157C20.375 19.6278 20.2979 19.9363 20.1179 20.1915C19.8194 20.6147 19.2827 21.2598 18.625 21.5417C17.6042 21.9792 16.6913 22.0183 15.4167 21.5417Z" stroke="#2563EB" stroke-width="1.16667" stroke-linecap="round" stroke-linejoin="round"/>
<path d="M17.4582 12.5C17.4582 11.2114 16.4135 10.1667 15.1248 10.1667C13.8362 10.1667 12.7915 11.2114 12.7915 12.5C12.7915 12.7014 12.817 12.8969 12.865 13.0834M12.865 13.0834C12.8908 13.1833 12.9229 13.2807 12.9611 13.375L12.865 13.0834Z" stroke="#2563EB" stroke-width="1.16667" stroke-linecap="round" stroke-linejoin="round"/>
</g>
<defs>
<clipPath id="clip0_47_2333">
<rect width="14" height="14" fill="white" transform="translate(9 9)"/>
</clipPath>
</defs>
</svg>
