<svg width="32" height="32" viewBox="0 0 32 32" fill="none" xmlns="http://www.w3.org/2000/svg">
<rect width="32" height="32" rx="8" fill="#15D7CD" fill-opacity="0.1"/>
<g clip-path="url(#clip0_47_1413)">
<path d="M15.9998 21.8334C17.6107 21.8334 19.069 21.1804 20.1246 20.1248C21.1802 19.0692 21.8332 17.6108 21.8332 16C21.8332 14.3892 21.1802 12.9309 20.1246 11.8752C19.069 10.8196 17.6107 10.1667 15.9998 10.1667C14.389 10.1667 12.9307 10.8196 11.875 11.8752C10.8194 12.9309 10.1665 14.3892 10.1665 16C10.1665 17.6108 10.8194 19.0692 11.875 20.1248C12.9307 21.1804 14.389 21.8334 15.9998 21.8334Z" stroke="#15D7CD" stroke-width="1.16667" stroke-linejoin="round"/>
<path d="M16 17.349V16.1823C16.9665 16.1823 17.75 15.3988 17.75 14.4323C17.75 13.4658 16.9665 12.6823 16 12.6823C15.0335 12.6823 14.25 13.4658 14.25 14.4323" stroke="#15D7CD" stroke-width="1.16667" stroke-linecap="round" stroke-linejoin="round"/>
<path fill-rule="evenodd" clip-rule="evenodd" d="M16.0002 19.974C16.4029 19.974 16.7293 19.6475 16.7293 19.2448C16.7293 18.8421 16.4029 18.5156 16.0002 18.5156C15.5975 18.5156 15.271 18.8421 15.271 19.2448C15.271 19.6475 15.5975 19.974 16.0002 19.974Z" fill="#15D7CD"/>
</g>
<defs>
<clipPath id="clip0_47_1413">
<rect width="14" height="14" fill="white" transform="translate(9 9)"/>
</clipPath>
</defs>
</svg>
