<svg width="32" height="32" viewBox="0 0 32 32" fill="none" xmlns="http://www.w3.org/2000/svg">
<g clip-path="url(#clip0_34_9011)">
<path d="M25.2 32H6.8C3.1 32 0 29 0 25.1V6.8C0 3.1 3 0 6.8 0H25.1C28.9 0 32 3.1 32 6.8V25.2C32 29 28.9 32 25.2 32Z" fill="url(#paint0_linear_34_9011)"/>
<path d="M21.7254 12.3802C21.6474 12.3802 21.5694 12.3802 21.5694 12.3802C21.5694 12.3802 21.4914 12.3022 21.4135 12.3022C21.3355 12.3022 21.3355 12.2242 21.2575 12.2242L21.1795 12.1462C21.1795 12.1462 21.1016 12.1462 21.0236 12.1462C20.9456 12.1462 20.9456 12.0683 20.8676 12.0683C20.7897 12.0683 20.7117 11.9903 20.5558 11.9903H20.4778C20.4778 11.9123 20.3998 11.9123 20.3998 11.9123H20.3218C20.3218 11.9123 20.2439 11.9123 20.1659 11.9123C20.1659 11.9123 20.0879 11.9123 20.0099 11.9123C19.6201 10.2749 18.0606 9.10528 16.3452 9.10528C14.3959 9.10528 12.8364 10.5088 12.6025 12.4581C12.6025 12.5361 12.6025 12.5361 12.6025 12.5361C12.6025 12.6921 12.6025 12.77 12.6025 12.848C12.6025 13.5498 12.7584 14.1736 13.0703 14.7194L15.5655 19.0859L15.0196 20.1775C14.8637 20.4114 14.7078 20.6453 14.4738 20.8013L11.6668 15.889C11.6668 15.811 11.6668 15.733 11.5888 15.733C11.5108 15.655 11.4329 15.4211 11.3549 15.2652C11.043 14.5634 10.8091 13.8617 10.8091 13.004C10.8091 12.926 10.8091 12.77 10.8091 12.6921C10.8091 12.6141 10.8091 12.4581 10.8091 12.3802C10.965 9.3392 13.4602 7 16.5011 7C19.0743 7.31189 21.4135 9.57312 21.7254 12.3802Z" fill="black"/>
<path d="M20.4777 16.6689L17.6707 21.5813V21.6592C17.6707 21.6592 17.6707 21.7372 17.5927 21.7372V21.8152C17.5147 21.8932 17.4368 22.1271 17.3588 22.2051C16.9689 22.8288 16.4231 23.3747 15.7993 23.7645H15.7214C15.5654 23.8425 15.4095 23.9984 15.2535 24.0764C14.8637 24.3103 14.3958 24.4663 13.928 24.5443C13.5381 24.6222 13.1482 24.6222 12.7584 24.6222C12.6804 24.6222 12.5245 24.6222 12.4465 24.6222C9.48349 24.3883 7.14429 21.8932 7.14429 18.9302C7.14429 18.0725 7.30023 17.2148 7.6901 16.435C8.07997 15.6553 8.70375 14.9535 9.40552 14.4077C9.48349 15.0315 9.71741 15.5773 10.0293 16.2011L10.1073 16.357C9.79538 16.6689 9.48349 17.1368 9.24957 17.6046C9.09362 18.0725 9.01565 18.5403 9.01565 19.0861C9.01565 20.9575 10.4192 22.5949 12.2905 22.8288C12.4465 22.8288 12.6024 22.8288 12.7584 22.8288C13.3042 22.8288 13.772 22.7509 14.2399 22.5169C14.9416 22.2051 15.4874 21.6592 15.8773 21.0355C15.8773 20.9575 15.9553 20.9575 15.9553 20.8015L18.3725 16.513H19.4641C19.8539 16.513 20.1658 16.591 20.4777 16.6689Z" fill="black"/>
<path d="M25.1562 19.0077C25.1562 21.9707 22.817 24.4658 19.854 24.6997C19.776 24.6997 19.6201 24.6997 19.5421 24.6997C19.1522 24.6997 18.7624 24.6997 18.3725 24.6218C17.9826 24.5438 17.6707 24.3878 17.2809 24.2319C17.7487 23.842 18.1386 23.3742 18.4505 22.8284C18.4505 22.8284 18.5284 22.7504 18.5284 22.6724C18.9963 22.7504 19.5421 22.8284 20.0099 22.7504C21.8033 22.4385 23.2068 20.879 23.2068 19.0077C23.2068 18.5398 23.1289 17.994 22.9729 17.6042C22.739 16.9024 22.2712 16.3566 21.7254 15.9667C21.7254 15.9667 21.7254 15.9667 21.7254 15.8887C21.1016 15.4209 20.3218 15.187 19.5421 15.187H14.4738L13.928 14.1733C13.928 14.0953 13.928 14.0953 13.928 14.0953C13.928 14.0174 13.928 14.0174 13.85 13.9394C13.85 13.8614 13.7721 13.7835 13.7721 13.7055C13.7721 13.6275 13.7721 13.6275 13.7721 13.6275C13.7721 13.5495 13.7721 13.4716 13.6941 13.3936V13.3156C13.6941 13.3156 13.6941 13.3156 13.6941 13.2376C13.6941 13.1597 13.6941 13.1597 13.6941 13.1597H19.1522H19.776C19.776 13.1597 19.854 13.1597 19.932 13.1597C20.0879 13.1597 20.1659 13.2376 20.3218 13.2376C20.3998 13.2376 20.3998 13.3156 20.4778 13.3156C20.5558 13.3156 20.6337 13.3936 20.7117 13.3936C20.8676 13.4716 20.9456 13.4716 21.1016 13.4716C21.2575 13.5495 21.3355 13.5495 21.4914 13.6275C21.5694 13.7055 21.7254 13.7835 21.8813 13.8614C22.0372 13.9394 22.1932 14.0953 22.3491 14.1733C23.2068 14.7191 23.9086 15.5768 24.2985 16.4346C25.0002 17.2923 25.1562 18.15 25.1562 19.0077Z" fill="black"/>
</g>
<defs>
<linearGradient id="paint0_linear_34_9011" x1="-6.8859" y1="47.2262" x2="30.8013" y2="-4.209" gradientUnits="userSpaceOnUse">
<stop stop-color="#F8FF15"/>
<stop offset="1" stop-color="#32FEA5"/>
</linearGradient>
<clipPath id="clip0_34_9011">
<rect width="32" height="32" fill="white"/>
</clipPath>
</defs>
</svg>
