<svg width="24" height="24" viewBox="0 0 24 24" fill="none" xmlns="http://www.w3.org/2000/svg">
<path fill-rule="evenodd" clip-rule="evenodd" d="M10.2642 3.66675C14.3525 3.66675 18.7458 6.95591 17.7058 12.4834C17.6942 12.5417 17.675 12.6001 17.6583 12.6584L17.6558 12.4276C17.5867 9.92758 16.3775 4.98258 10.2642 4.98258C7.43667 4.98258 3.48333 7.52758 3.65583 11.7809C3.6225 15.7626 6.61833 18.7809 10.2808 18.7242L10.3417 18.7234C11.3417 18.6959 12.6442 18.3659 12.925 17.3426C12.9775 17.3167 13.1417 17.7876 13.1483 17.8409C13.1883 18.0542 13.2417 18.1484 13.3083 18.1242C14.1258 17.8342 15.2133 17.1059 14.935 16.1409C14.7883 15.6326 13.4558 16.0184 13.3342 15.8517C13.6825 15.0359 15.1958 15.0801 15.9617 15.2551C16.3308 15.3401 16.5092 15.5717 16.805 15.6234C17.0467 15.6667 17.6225 15.4567 17.605 15.8251C16.355 18.3601 13.5275 20.3334 10.265 20.3334C5.045 20.3334 2 15.8117 2 11.7809C2 6.95591 6.1325 3.66675 10.2642 3.66675ZM10.25 6.41675C10.6533 6.41675 11.1875 6.60425 11.4 6.90425C14.4575 7.02508 14.9942 9.14258 15.3117 11.4409C15.5242 12.9726 15.5742 13.3576 15.4633 12.5967L15.5325 13.0884C15.5892 13.4617 15.9942 13.7026 16.3508 13.5184C16.4708 13.4559 16.5625 13.3259 16.6242 13.1267C16.6307 13.1052 16.6416 13.0853 16.6561 13.0681C16.6706 13.0509 16.6885 13.0368 16.7085 13.0267C16.7286 13.0166 16.7506 13.0106 16.773 13.0092C16.7955 13.0078 16.818 13.0109 16.8392 13.0184L17.36 13.2017C17.3987 13.2161 17.4308 13.2444 17.4499 13.281C17.469 13.3177 17.4738 13.3601 17.4633 13.4001C17.3866 13.6866 17.2407 13.9499 17.0383 14.1667C16.3067 14.9309 14.7408 14.7201 14.4717 13.6501C14.355 13.1884 14.4258 13.1284 14.1842 12.6151C13.9408 12.0976 13.1525 12.0242 12.7758 12.3692C12.4883 12.6317 12.4367 13.0401 12.4375 13.4376L12.5 15.2501C12.5 15.449 12.421 15.6398 12.2803 15.7804C12.1397 15.9211 11.9489 16.0001 11.75 16.0001H10.5833C10.4848 16.0001 10.3873 15.9807 10.2963 15.943C10.2053 15.9053 10.1226 15.8501 10.053 15.7804C9.98336 15.7108 9.92811 15.6281 9.89042 15.5371C9.85273 15.4461 9.83333 15.3486 9.83333 15.2501V14.7084C9.83333 14.5826 9.80855 14.4579 9.76038 14.3417C9.71222 14.2254 9.64163 14.1198 9.55264 14.0308C9.46365 13.9418 9.35801 13.8712 9.24174 13.823C9.12547 13.7749 9.00085 13.7501 8.875 13.7501C8.74915 13.7501 8.62453 13.7749 8.50826 13.823C8.39199 13.8712 8.28635 13.9418 8.19736 14.0308C8.10837 14.1198 8.03778 14.2254 7.98962 14.3417C7.94145 14.4579 7.91667 14.5826 7.91667 14.7084V15.2501C7.91667 15.449 7.83765 15.6398 7.697 15.7804C7.55634 15.9211 7.36558 16.0001 7.16667 16.0001H6C5.80109 16.0001 5.61032 15.9211 5.46967 15.7804C5.32902 15.6398 5.25 15.449 5.25 15.2501L5.27917 12.5509C5.28917 10.9809 5.57583 9.50258 7.3375 9.10592C7.50417 9.06842 7.5475 9.21425 7.57917 9.39091C7.6 9.51925 7.615 9.60091 7.62333 9.63591C8.2075 12.1842 9.08167 13.2184 10.2433 12.7376L10.7933 12.4617L11.005 12.3534C11.1367 12.2851 11.2133 12.2442 11.235 12.2284C11.245 12.2201 11.0975 12.0567 10.8958 11.8417L10.0525 10.9526C9.99624 10.8935 9.94095 10.8335 9.88667 10.7726C9.8475 10.7442 9.79 10.8292 9.71333 11.0276C9.65167 11.1584 9.50417 11.2376 9.48667 11.2992C9.47583 11.3476 9.57667 11.5476 9.78833 11.8992C9.925 12.1392 9.97167 12.3226 9.53 12.1851C8.66333 11.5184 8.265 10.2909 8.12667 9.08091C8.12333 9.05175 7.99167 7.48675 7.99167 7.48675C7.97311 7.2222 8.06041 6.96111 8.23434 6.76092C8.40828 6.56073 8.65462 6.43783 8.91917 6.41925L10.25 6.41675ZM21.0783 13.6501C21.1092 14.2309 20.7425 14.2367 20.0675 14.1426L18.5817 13.9126C18.3608 13.8684 18.2608 13.8301 18.3208 13.7901C18.7125 13.5276 21.0442 13.0151 21.0792 13.6501H21.0783ZM20.3158 13.5809L19.5442 13.6159C18.8358 13.6801 18.3342 13.8159 19.8258 13.8959L19.9117 13.8984C20.5908 13.9084 20.965 13.5992 20.3158 13.5809ZM21.705 10.5801H21.7133C22.3717 10.9117 21.7692 11.4384 21.1717 11.7409C21.055 11.7992 20.7625 11.8876 20.295 12.0034C20.0942 12.0367 19.9142 12.0801 20.0175 12.1367L20.0258 12.1409C21.6525 12.9392 17.4233 13.4192 17.9467 13.2117L18.2633 13.0884C18.83 12.8667 19.6083 12.5201 19.6517 11.9742C19.6833 11.5742 20.6958 11.6059 20.8958 11.1676C20.9358 11.0792 20.8958 10.9709 20.7758 10.8434C20.7342 10.8042 20.6975 10.7651 20.6867 10.7201C20.6258 10.4659 21.27 10.3609 21.705 10.5801ZM19.565 10.1851C19.4525 11.1834 17.4992 13.6784 17.9408 12.5709L17.955 12.5359C18.2033 11.9384 18.2683 10.6851 19.0692 9.85175C19.2775 9.63508 19.5992 9.88091 19.565 10.1851ZM12.9183 9.97425C12.935 9.39591 13.7533 9.16758 14.04 9.68508C14.0483 8.62341 12.4225 9.04508 12.9183 9.97425Z" fill="url(#paint0_linear_992_593)"/>
<g style="mix-blend-mode:saturation">
<path fill-rule="evenodd" clip-rule="evenodd" d="M10.2642 3.66675C14.3525 3.66675 18.7458 6.95591 17.7058 12.4834C17.6942 12.5417 17.675 12.6001 17.6583 12.6584L17.6558 12.4276C17.5867 9.92758 16.3775 4.98258 10.2642 4.98258C7.43667 4.98258 3.48333 7.52758 3.65583 11.7809C3.6225 15.7626 6.61833 18.7809 10.2808 18.7242L10.3417 18.7234C11.3417 18.6959 12.6442 18.3659 12.925 17.3426C12.9775 17.3167 13.1417 17.7876 13.1483 17.8409C13.1883 18.0542 13.2417 18.1484 13.3083 18.1242C14.1258 17.8342 15.2133 17.1059 14.935 16.1409C14.7883 15.6326 13.4558 16.0184 13.3342 15.8517C13.6825 15.0359 15.1958 15.0801 15.9617 15.2551C16.3308 15.3401 16.5092 15.5717 16.805 15.6234C17.0467 15.6667 17.6225 15.4567 17.605 15.8251C16.355 18.3601 13.5275 20.3334 10.265 20.3334C5.045 20.3334 2 15.8117 2 11.7809C2 6.95591 6.1325 3.66675 10.2642 3.66675ZM10.25 6.41675C10.6533 6.41675 11.1875 6.60425 11.4 6.90425C14.4575 7.02508 14.9942 9.14258 15.3117 11.4409C15.5242 12.9726 15.5742 13.3576 15.4633 12.5967L15.5325 13.0884C15.5892 13.4617 15.9942 13.7026 16.3508 13.5184C16.4708 13.4559 16.5625 13.3259 16.6242 13.1267C16.6307 13.1052 16.6416 13.0853 16.6561 13.0681C16.6706 13.0509 16.6885 13.0368 16.7085 13.0267C16.7286 13.0166 16.7506 13.0106 16.773 13.0092C16.7955 13.0078 16.818 13.0109 16.8392 13.0184L17.36 13.2017C17.3987 13.2161 17.4308 13.2444 17.4499 13.281C17.469 13.3177 17.4738 13.3601 17.4633 13.4001C17.3866 13.6866 17.2407 13.9499 17.0383 14.1667C16.3067 14.9309 14.7408 14.7201 14.4717 13.6501C14.355 13.1884 14.4258 13.1284 14.1842 12.6151C13.9408 12.0976 13.1525 12.0242 12.7758 12.3692C12.4883 12.6317 12.4367 13.0401 12.4375 13.4376L12.5 15.2501C12.5 15.449 12.421 15.6398 12.2803 15.7804C12.1397 15.9211 11.9489 16.0001 11.75 16.0001H10.5833C10.4848 16.0001 10.3873 15.9807 10.2963 15.943C10.2053 15.9053 10.1226 15.8501 10.053 15.7804C9.98336 15.7108 9.92811 15.6281 9.89042 15.5371C9.85273 15.4461 9.83333 15.3486 9.83333 15.2501V14.7084C9.83333 14.5826 9.80855 14.4579 9.76038 14.3417C9.71222 14.2254 9.64163 14.1198 9.55264 14.0308C9.46365 13.9418 9.35801 13.8712 9.24174 13.823C9.12547 13.7749 9.00085 13.7501 8.875 13.7501C8.74915 13.7501 8.62453 13.7749 8.50826 13.823C8.39199 13.8712 8.28635 13.9418 8.19736 14.0308C8.10837 14.1198 8.03778 14.2254 7.98962 14.3417C7.94145 14.4579 7.91667 14.5826 7.91667 14.7084V15.2501C7.91667 15.449 7.83765 15.6398 7.697 15.7804C7.55634 15.9211 7.36558 16.0001 7.16667 16.0001H6C5.80109 16.0001 5.61032 15.9211 5.46967 15.7804C5.32902 15.6398 5.25 15.449 5.25 15.2501L5.27917 12.5509C5.28917 10.9809 5.57583 9.50258 7.3375 9.10592C7.50417 9.06842 7.5475 9.21425 7.57917 9.39091C7.6 9.51925 7.615 9.60091 7.62333 9.63591C8.2075 12.1842 9.08167 13.2184 10.2433 12.7376L10.7933 12.4617L11.005 12.3534C11.1367 12.2851 11.2133 12.2442 11.235 12.2284C11.245 12.2201 11.0975 12.0567 10.8958 11.8417L10.0525 10.9526C9.99624 10.8935 9.94095 10.8335 9.88667 10.7726C9.8475 10.7442 9.79 10.8292 9.71333 11.0276C9.65167 11.1584 9.50417 11.2376 9.48667 11.2992C9.47583 11.3476 9.57667 11.5476 9.78833 11.8992C9.925 12.1392 9.97167 12.3226 9.53 12.1851C8.66333 11.5184 8.265 10.2909 8.12667 9.08091C8.12333 9.05175 7.99167 7.48675 7.99167 7.48675C7.97311 7.2222 8.06041 6.96111 8.23434 6.76092C8.40828 6.56073 8.65462 6.43783 8.91917 6.41925L10.25 6.41675ZM21.0783 13.6501C21.1092 14.2309 20.7425 14.2367 20.0675 14.1426L18.5817 13.9126C18.3608 13.8684 18.2608 13.8301 18.3208 13.7901C18.7125 13.5276 21.0442 13.0151 21.0792 13.6501H21.0783ZM20.3158 13.5809L19.5442 13.6159C18.8358 13.6801 18.3342 13.8159 19.8258 13.8959L19.9117 13.8984C20.5908 13.9084 20.965 13.5992 20.3158 13.5809ZM21.705 10.5801H21.7133C22.3717 10.9117 21.7692 11.4384 21.1717 11.7409C21.055 11.7992 20.7625 11.8876 20.295 12.0034C20.0942 12.0367 19.9142 12.0801 20.0175 12.1367L20.0258 12.1409C21.6525 12.9392 17.4233 13.4192 17.9467 13.2117L18.2633 13.0884C18.83 12.8667 19.6083 12.5201 19.6517 11.9742C19.6833 11.5742 20.6958 11.6059 20.8958 11.1676C20.9358 11.0792 20.8958 10.9709 20.7758 10.8434C20.7342 10.8042 20.6975 10.7651 20.6867 10.7201C20.6258 10.4659 21.27 10.3609 21.705 10.5801ZM19.565 10.1851C19.4525 11.1834 17.4992 13.6784 17.9408 12.5709L17.955 12.5359C18.2033 11.9384 18.2683 10.6851 19.0692 9.85175C19.2775 9.63508 19.5992 9.88091 19.565 10.1851ZM12.9183 9.97425C12.935 9.39591 13.7533 9.16758 14.04 9.68508C14.0483 8.62341 12.4225 9.04508 12.9183 9.97425Z" fill="#9A9A9A"/>
</g>
<defs>
<linearGradient id="paint0_linear_992_593" x1="-1.75116" y1="11.8952" x2="14.8834" y2="21.1518" gradientUnits="userSpaceOnUse">
<stop stop-color="#504AF4"/>
<stop offset="1" stop-color="#3485FF"/>
</linearGradient>
</defs>
</svg>
