<svg width="24" height="24" viewBox="0 0 24 24" fill="none" xmlns="http://www.w3.org/2000/svg">
<g clip-path="url(#clip0_929_6451)">
<path d="M17.6722 7.30455C16.826 6.45994 15.9029 5.57686 15.1953 4.86148C14.5214 4.18148 13.966 3.64918 13.8906 3.55225C13.926 3.70455 14.2229 4.99379 14.4014 6.17842C14.5353 7.06764 14.6306 7.96303 14.6353 8.23994C14.6353 8.23994 17.9368 8.56918 21.0568 10.5692C21.0568 10.5692 19.3691 8.99994 17.6722 7.30455ZM13.9753 3.65686L13.9553 3.56455C13.906 3.54455 13.9168 3.57686 13.9753 3.65686Z" fill="#1E37FC"/>
<path d="M21.0565 10.5692C21.0565 10.5692 19.3642 9.56304 18.3888 9.19995C17.5119 8.87378 15.0165 8.18611 14.6503 8.26765C14.6503 8.26765 14.815 12.843 14.4303 14.2276C14.4242 14.4123 14.1919 15.6953 13.5642 17.3046C12.9703 18.8353 11.9642 20.4 10.8965 21.3738C13.3211 20.4261 15.115 19.5661 17.2303 17.9553C19.7103 16.0661 21.8672 12.9969 21.0565 10.5707L21.0565 10.5692Z" fill="#37E1BE"/>
<path d="M13.9165 3.58C10.4642 0.869236 6.69035 2.05539 4.83959 4.08769C3.59959 5.45384 2.79037 7.38 2.86113 8.43691L2.77344 16.6277C6.54727 6.85076 14.5119 8.11383 14.635 8.25384C14.8827 8.53384 13.9165 3.58 13.9165 3.58Z" fill="#A569FF"/>
<path d="M12.7874 18.9015C12.7874 18.9015 7.66583 21.5553 6.23352 17.0245C6.23352 17.0245 5.53044 12.3415 8.272 9.56763C8.272 9.56763 4.71044 11.4292 2.81659 16.4599C2.76429 16.4799 2.56892 18.3538 3.63813 19.8907C4.69968 21.4138 7.52737 22.7107 10.2828 21.5584L10.9551 21.3738C10.9551 21.3738 12.972 19.023 12.7874 18.9015Z" fill="#1E37FC"/>
</g>
<defs>
<clipPath id="clip0_929_6451">
<rect width="20" height="20" fill="white" transform="translate(2 2)"/>
</clipPath>
</defs>
</svg>
