<svg width="20" height="20" viewBox="0 0 20 20" fill="none" xmlns="http://www.w3.org/2000/svg">
<g clip-path="url(#clip0_992_3702)">
<path d="M15.6722 5.30455C14.826 4.45994 13.9029 3.57686 13.1953 2.86148C12.5214 2.18148 11.966 1.64918 11.8906 1.55225C11.926 1.70455 12.2229 2.99379 12.4014 4.17842C12.5353 5.06764 12.6306 5.96303 12.6353 6.23994C12.6353 6.23994 15.9368 6.56918 19.0568 8.56918C19.0568 8.56918 17.3691 6.99994 15.6722 5.30455ZM11.9753 1.65686L11.9553 1.56455C11.906 1.54455 11.9168 1.57686 11.9753 1.65686Z" fill="#1E37FC"/>
<path d="M19.0565 8.56919C19.0565 8.56919 17.3642 7.56304 16.3888 7.19995C15.5119 6.87378 13.0165 6.18611 12.6503 6.26765C12.6503 6.26765 12.815 10.843 12.4303 12.2276C12.4242 12.4123 12.1919 13.6953 11.5642 15.3046C10.9703 16.8353 9.96418 18.4 8.89648 19.3738C11.3211 18.4261 13.115 17.5661 15.2303 15.9553C17.7103 14.0661 19.8672 10.9969 19.0565 8.57071L19.0565 8.56919Z" fill="#37E1BE"/>
<path d="M11.9165 1.58C8.4642 -1.13076 4.69035 0.0553882 2.83959 2.08769C1.59959 3.45384 0.790371 5.38 0.861133 6.43691L0.773438 14.6277C4.54727 4.85076 12.5119 6.11383 12.635 6.25384C12.8827 6.53384 11.9165 1.58 11.9165 1.58Z" fill="#A569FF"/>
<path d="M10.7874 16.9015C10.7874 16.9015 5.66583 19.5553 4.23352 15.0245C4.23352 15.0245 3.53044 10.3415 6.272 7.56763C6.272 7.56763 2.71044 9.42915 0.816591 14.4599C0.764287 14.4799 0.568915 16.3538 1.63813 17.8907C2.69968 19.4138 5.52737 20.7107 8.28276 19.5584L8.95507 19.3738C8.95507 19.3738 10.972 17.023 10.7874 16.9015Z" fill="#1E37FC"/>
</g>
<g style="mix-blend-mode:saturation" clip-path="url(#clip1_992_3702)">
<path d="M15.6722 5.30455C14.826 4.45994 13.9029 3.57686 13.1953 2.86148C12.5214 2.18148 11.966 1.64918 11.8906 1.55225C11.926 1.70455 12.2229 2.99379 12.4014 4.17842C12.5353 5.06764 12.6306 5.96303 12.6353 6.23994C12.6353 6.23994 15.9368 6.56918 19.0568 8.56918C19.0568 8.56918 17.3691 6.99994 15.6722 5.30455ZM11.9753 1.65686L11.9553 1.56455C11.906 1.54455 11.9168 1.57686 11.9753 1.65686Z" fill="#9A9A9A"/>
<path d="M19.0565 8.56919C19.0565 8.56919 17.3642 7.56304 16.3888 7.19995C15.5119 6.87378 13.0165 6.18611 12.6503 6.26765C12.6503 6.26765 12.815 10.843 12.4303 12.2276C12.4242 12.4123 12.1919 13.6953 11.5642 15.3046C10.9703 16.8353 9.96418 18.4 8.89648 19.3738C11.3211 18.4261 13.115 17.5661 15.2303 15.9553C17.7103 14.0661 19.8672 10.9969 19.0565 8.57071L19.0565 8.56919Z" fill="#9A9A9A"/>
<path d="M11.9165 1.58C8.4642 -1.13076 4.69035 0.0553882 2.83959 2.08769C1.59959 3.45384 0.790371 5.38 0.861133 6.43691L0.773438 14.6277C4.54727 4.85076 12.5119 6.11383 12.635 6.25384C12.8827 6.53384 11.9165 1.58 11.9165 1.58Z" fill="#9A9A9A"/>
<path d="M10.7874 16.9015C10.7874 16.9015 5.66583 19.5553 4.23352 15.0245C4.23352 15.0245 3.53044 10.3415 6.272 7.56763C6.272 7.56763 2.71044 9.42915 0.816591 14.4599C0.764287 14.4799 0.568915 16.3538 1.63813 17.8907C2.69968 19.4138 5.52737 20.7107 8.28276 19.5584L8.95507 19.3738C8.95507 19.3738 10.972 17.023 10.7874 16.9015Z" fill="#9A9A9A"/>
</g>
<defs>
<clipPath id="clip0_992_3702">
<rect width="20" height="20" fill="white"/>
</clipPath>
<clipPath id="clip1_992_3702">
<rect width="20" height="20" fill="white"/>
</clipPath>
</defs>
</svg>
