<svg width="20" height="20" viewBox="0 0 20 20" fill="none" xmlns="http://www.w3.org/2000/svg">
<g clip-path="url(#clip0_1429_10)">
<path fill-rule="evenodd" clip-rule="evenodd" d="M7.725 12.7416L14.3733 7.82746C14.6992 7.58579 15.165 7.67996 15.3208 8.05413C16.1375 10.0283 15.7725 12.4 14.1458 14.0283C12.52 15.6566 10.2567 16.0133 8.18833 15.2L5.92917 16.2475C9.17 18.465 13.105 17.9166 15.5642 15.4533C17.515 13.5 18.1192 10.8375 17.5542 8.43663L17.5592 8.44246C16.74 4.91579 17.7608 3.50579 19.8508 0.623293C19.9008 0.554959 19.9508 0.486626 20 0.416626L17.2492 3.17079V3.16246L7.7225 12.7433M6.3525 13.9358C4.02583 11.7108 4.4275 8.26829 6.41167 6.28246C7.87917 4.81329 10.2842 4.21329 12.3833 5.09496L14.6375 4.05329C14.169 3.70864 13.6564 3.42837 13.1133 3.21996C11.7482 2.66121 10.2482 2.51862 8.80224 2.81013C7.35623 3.10165 6.02872 3.81424 4.98667 4.85829C2.87583 6.97163 2.21167 10.2216 3.35167 12.995C4.20333 15.0675 2.8075 16.5333 1.40167 18.0133C0.9025 18.5383 0.4025 19.0625 0 19.6175L6.35 13.9383" fill="black"/>
</g>
<defs>
<clipPath id="clip0_1429_10">
<rect width="20" height="20" fill="white"/>
</clipPath>
</defs>
</svg>
