<svg width="24" height="24" viewBox="0 0 24 24" fill="none" xmlns="http://www.w3.org/2000/svg">
<path d="M15.565 4C16.5283 4 17.3092 4.7725 17.3092 5.725V16.1425C17.3159 16.3021 17.3842 16.4529 17.4999 16.5631C17.6155 16.6733 17.7694 16.7343 17.9292 16.7333C18.0888 16.7341 18.2425 16.673 18.3579 16.5628C18.4734 16.4526 18.5416 16.302 18.5483 16.1425V9.91583C18.5495 9.6904 18.5951 9.4674 18.6825 9.25959C18.7699 9.05177 18.8973 8.8632 19.0576 8.70464C19.2179 8.54609 19.4078 8.42065 19.6165 8.33549C19.8253 8.25034 20.0487 8.20713 20.2742 8.20833C20.4997 8.20713 20.7232 8.25036 20.932 8.33557C21.1408 8.42078 21.3307 8.54629 21.491 8.70494C21.6513 8.86358 21.7787 9.05225 21.8661 9.26017C21.9534 9.46808 21.9989 9.69116 22 9.91667V15.3842C21.9991 15.5275 21.9414 15.6645 21.8395 15.7653C21.7377 15.8661 21.6 15.9223 21.4567 15.9217C21.3856 15.9221 21.3152 15.9086 21.2494 15.8818C21.1837 15.855 21.1238 15.8155 21.0733 15.7656C21.0227 15.7157 20.9825 15.6563 20.9549 15.5909C20.9274 15.5254 20.9129 15.4552 20.9125 15.3842V9.91667C20.9121 9.83328 20.8952 9.75079 20.8629 9.67391C20.8306 9.59704 20.7834 9.52728 20.7242 9.46863C20.6649 9.40997 20.5946 9.36357 20.5174 9.33206C20.4402 9.30055 20.3576 9.28456 20.2742 9.285C20.1908 9.28456 20.1081 9.30055 20.0309 9.33206C19.9537 9.36357 19.8834 9.40997 19.8242 9.46863C19.7649 9.52728 19.7178 9.59704 19.6854 9.67391C19.6531 9.75079 19.6363 9.83328 19.6358 9.91667V16.1433C19.6346 16.3663 19.5895 16.5868 19.5031 16.7922C19.4167 16.9977 19.2907 17.1842 19.1322 17.341C18.9737 17.4977 18.7859 17.6218 18.5795 17.706C18.3731 17.7902 18.1521 17.8329 17.9292 17.8317C17.7062 17.8329 17.4853 17.7902 17.2789 17.706C17.0724 17.6218 16.8846 17.4977 16.7262 17.341C16.5677 17.1842 16.4416 16.9977 16.3552 16.7922C16.2688 16.5868 16.2237 16.3663 16.2225 16.1433V5.72667C16.2156 5.5574 16.1433 5.39741 16.0208 5.28038C15.8983 5.16334 15.7352 5.09838 15.5658 5.09917C15.3964 5.09815 15.2332 5.1629 15.1106 5.27979C14.988 5.39667 14.9155 5.55657 14.9083 5.72583L14.9075 18.9792C14.9049 19.4292 14.7236 19.8598 14.4035 20.1763C14.0835 20.4927 13.6509 20.6691 13.2008 20.6667C12.9779 20.6679 12.7569 20.6252 12.5505 20.541C12.3441 20.4568 12.1563 20.3327 11.9978 20.176C11.8393 20.0192 11.7133 19.8327 11.6269 19.6272C11.5405 19.4218 11.4954 19.2013 11.4942 18.9783V17.3667C11.4942 17.07 11.7375 16.8292 12.0375 16.8292C12.3375 16.8292 12.5808 17.07 12.5808 17.3667V18.9783C12.5808 19.1975 12.6992 19.4 12.8908 19.51C13.0825 19.6192 13.3192 19.6192 13.5108 19.51C13.6049 19.4567 13.6831 19.3794 13.7376 19.286C13.792 19.1926 13.8208 19.0864 13.8208 18.9783V5.725C13.8208 4.7725 14.6017 4 15.565 4ZM10.8367 4C11.8 4 12.5808 4.7725 12.5808 5.725V15.3275C12.5805 15.3985 12.5662 15.4687 12.5387 15.5342C12.5112 15.5996 12.4711 15.659 12.4206 15.7089C12.3701 15.7588 12.3103 15.7983 12.2446 15.8251C12.1789 15.8519 12.1085 15.8654 12.0375 15.865C11.9665 15.8654 11.8961 15.8519 11.8304 15.8251C11.7647 15.7983 11.7049 15.7588 11.6544 15.7089C11.6039 15.659 11.5638 15.5996 11.5363 15.5342C11.5088 15.4687 11.4945 15.3985 11.4942 15.3275V5.725C11.4931 5.55165 11.4232 5.38582 11.2999 5.26395C11.1766 5.14207 11.01 5.07411 10.8367 5.075C10.6633 5.07411 10.4967 5.14207 10.3734 5.26395C10.2501 5.38582 10.1803 5.55165 10.1792 5.725V17.4025C10.1765 17.8575 9.99335 18.2928 9.66989 18.6129C9.34644 18.9329 8.90917 19.1114 8.45417 19.1092C7.99902 19.1116 7.56153 18.9332 7.2379 18.6132C6.91427 18.2931 6.73098 17.8576 6.72833 17.4025V9.91667C6.7279 9.83328 6.71104 9.75079 6.67872 9.67391C6.64641 9.59704 6.59927 9.52728 6.53999 9.46863C6.48072 9.40997 6.41047 9.36357 6.33326 9.33206C6.25605 9.30055 6.17339 9.28456 6.09 9.285C6.00661 9.28456 5.92395 9.30055 5.84674 9.33206C5.76953 9.36357 5.69928 9.40997 5.64001 9.46863C5.58073 9.52728 5.53359 9.59704 5.50128 9.67391C5.46896 9.75079 5.4521 9.83328 5.45167 9.91667V13.0833C5.45047 13.3088 5.40487 13.5318 5.31749 13.7396C5.23011 13.9474 5.10265 14.136 4.94239 14.2945C4.78213 14.4531 4.59221 14.5785 4.38347 14.6637C4.17474 14.7488 3.95127 14.792 3.72583 14.7908C3.5004 14.792 3.27693 14.7488 3.06819 14.6637C2.85945 14.5785 2.66953 14.4531 2.50927 14.2945C2.34902 14.136 2.22156 13.9474 2.13417 13.7396C2.04679 13.5318 2.0012 13.3088 2 13.0833L2 11.935C2 11.6375 2.24333 11.3967 2.54333 11.3967C2.84333 11.3967 3.0875 11.6383 3.0875 11.935V13.0833C3.0875 13.4317 3.37333 13.7142 3.72583 13.7142C4.07833 13.7142 4.36417 13.4317 4.36417 13.0833V9.91583C4.36681 9.46083 4.54999 9.0255 4.87344 8.70548C5.19689 8.38546 5.63416 8.20695 6.08917 8.20917C6.54431 8.20673 6.9818 8.38514 7.30543 8.70518C7.62907 9.02522 7.81236 9.46069 7.815 9.91583V17.4025C7.815 17.7517 8.10083 18.0342 8.45417 18.0342C8.80667 18.0342 9.0925 17.7517 9.0925 17.4025V5.725C9.0925 4.7725 9.87333 4 10.8367 4Z" fill="url(#paint0_linear_992_160)"/>
<g style="mix-blend-mode:saturation">
<path d="M15.565 4C16.5283 4 17.3092 4.7725 17.3092 5.725V16.1425C17.3159 16.3021 17.3842 16.4529 17.4999 16.5631C17.6155 16.6733 17.7694 16.7343 17.9292 16.7333C18.0888 16.7341 18.2425 16.673 18.3579 16.5628C18.4734 16.4526 18.5416 16.302 18.5483 16.1425V9.91583C18.5495 9.6904 18.5951 9.4674 18.6825 9.25959C18.7699 9.05177 18.8973 8.8632 19.0576 8.70464C19.2179 8.54609 19.4078 8.42065 19.6165 8.33549C19.8253 8.25034 20.0487 8.20713 20.2742 8.20833C20.4997 8.20713 20.7232 8.25036 20.932 8.33557C21.1408 8.42078 21.3307 8.54629 21.491 8.70494C21.6513 8.86358 21.7787 9.05225 21.8661 9.26017C21.9534 9.46808 21.9989 9.69116 22 9.91667V15.3842C21.9991 15.5275 21.9414 15.6645 21.8395 15.7653C21.7377 15.8661 21.6 15.9223 21.4567 15.9217C21.3856 15.9221 21.3152 15.9086 21.2494 15.8818C21.1837 15.855 21.1238 15.8155 21.0733 15.7656C21.0227 15.7157 20.9825 15.6563 20.9549 15.5909C20.9274 15.5254 20.9129 15.4552 20.9125 15.3842V9.91667C20.9121 9.83328 20.8952 9.75079 20.8629 9.67391C20.8306 9.59704 20.7834 9.52728 20.7242 9.46863C20.6649 9.40997 20.5946 9.36357 20.5174 9.33206C20.4402 9.30055 20.3576 9.28456 20.2742 9.285C20.1908 9.28456 20.1081 9.30055 20.0309 9.33206C19.9537 9.36357 19.8834 9.40997 19.8242 9.46863C19.7649 9.52728 19.7178 9.59704 19.6854 9.67391C19.6531 9.75079 19.6363 9.83328 19.6358 9.91667V16.1433C19.6346 16.3663 19.5895 16.5868 19.5031 16.7922C19.4167 16.9977 19.2907 17.1842 19.1322 17.341C18.9737 17.4977 18.7859 17.6218 18.5795 17.706C18.3731 17.7902 18.1521 17.8329 17.9292 17.8317C17.7062 17.8329 17.4853 17.7902 17.2789 17.706C17.0724 17.6218 16.8846 17.4977 16.7262 17.341C16.5677 17.1842 16.4416 16.9977 16.3552 16.7922C16.2688 16.5868 16.2237 16.3663 16.2225 16.1433V5.72667C16.2156 5.5574 16.1433 5.39741 16.0208 5.28038C15.8983 5.16334 15.7352 5.09838 15.5658 5.09917C15.3964 5.09815 15.2332 5.1629 15.1106 5.27979C14.988 5.39667 14.9155 5.55657 14.9083 5.72583L14.9075 18.9792C14.9049 19.4292 14.7236 19.8598 14.4035 20.1763C14.0835 20.4927 13.6509 20.6691 13.2008 20.6667C12.9779 20.6679 12.7569 20.6252 12.5505 20.541C12.3441 20.4568 12.1563 20.3327 11.9978 20.176C11.8393 20.0192 11.7133 19.8327 11.6269 19.6272C11.5405 19.4218 11.4954 19.2013 11.4942 18.9783V17.3667C11.4942 17.07 11.7375 16.8292 12.0375 16.8292C12.3375 16.8292 12.5808 17.07 12.5808 17.3667V18.9783C12.5808 19.1975 12.6992 19.4 12.8908 19.51C13.0825 19.6192 13.3192 19.6192 13.5108 19.51C13.6049 19.4567 13.6831 19.3794 13.7376 19.286C13.792 19.1926 13.8208 19.0864 13.8208 18.9783V5.725C13.8208 4.7725 14.6017 4 15.565 4ZM10.8367 4C11.8 4 12.5808 4.7725 12.5808 5.725V15.3275C12.5805 15.3985 12.5662 15.4687 12.5387 15.5342C12.5112 15.5996 12.4711 15.659 12.4206 15.7089C12.3701 15.7588 12.3103 15.7983 12.2446 15.8251C12.1789 15.8519 12.1085 15.8654 12.0375 15.865C11.9665 15.8654 11.8961 15.8519 11.8304 15.8251C11.7647 15.7983 11.7049 15.7588 11.6544 15.7089C11.6039 15.659 11.5638 15.5996 11.5363 15.5342C11.5088 15.4687 11.4945 15.3985 11.4942 15.3275V5.725C11.4931 5.55165 11.4232 5.38582 11.2999 5.26395C11.1766 5.14207 11.01 5.07411 10.8367 5.075C10.6633 5.07411 10.4967 5.14207 10.3734 5.26395C10.2501 5.38582 10.1803 5.55165 10.1792 5.725V17.4025C10.1765 17.8575 9.99335 18.2928 9.66989 18.6129C9.34644 18.9329 8.90917 19.1114 8.45417 19.1092C7.99902 19.1116 7.56153 18.9332 7.2379 18.6132C6.91427 18.2931 6.73098 17.8576 6.72833 17.4025V9.91667C6.7279 9.83328 6.71104 9.75079 6.67872 9.67391C6.64641 9.59704 6.59927 9.52728 6.53999 9.46863C6.48072 9.40997 6.41047 9.36357 6.33326 9.33206C6.25605 9.30055 6.17339 9.28456 6.09 9.285C6.00661 9.28456 5.92395 9.30055 5.84674 9.33206C5.76953 9.36357 5.69928 9.40997 5.64001 9.46863C5.58073 9.52728 5.53359 9.59704 5.50128 9.67391C5.46896 9.75079 5.4521 9.83328 5.45167 9.91667V13.0833C5.45047 13.3088 5.40487 13.5318 5.31749 13.7396C5.23011 13.9474 5.10265 14.136 4.94239 14.2945C4.78213 14.4531 4.59221 14.5785 4.38347 14.6637C4.17474 14.7488 3.95127 14.792 3.72583 14.7908C3.5004 14.792 3.27693 14.7488 3.06819 14.6637C2.85945 14.5785 2.66953 14.4531 2.50927 14.2945C2.34902 14.136 2.22156 13.9474 2.13417 13.7396C2.04679 13.5318 2.0012 13.3088 2 13.0833L2 11.935C2 11.6375 2.24333 11.3967 2.54333 11.3967C2.84333 11.3967 3.0875 11.6383 3.0875 11.935V13.0833C3.0875 13.4317 3.37333 13.7142 3.72583 13.7142C4.07833 13.7142 4.36417 13.4317 4.36417 13.0833V9.91583C4.36681 9.46083 4.54999 9.0255 4.87344 8.70548C5.19689 8.38546 5.63416 8.20695 6.08917 8.20917C6.54431 8.20673 6.9818 8.38514 7.30543 8.70518C7.62907 9.02522 7.81236 9.46069 7.815 9.91583V17.4025C7.815 17.7517 8.10083 18.0342 8.45417 18.0342C8.80667 18.0342 9.0925 17.7517 9.0925 17.4025V5.725C9.0925 4.7725 9.87333 4 10.8367 4Z" fill="#9A9A9A"/>
</g>
<defs>
<linearGradient id="paint0_linear_992_160" x1="2" y1="12.3428" x2="22.0364" y2="12.3428" gradientUnits="userSpaceOnUse">
<stop stop-color="#E2167E"/>
<stop offset="1" stop-color="#FE603C"/>
</linearGradient>
</defs>
</svg>
