<svg width="20" height="20" viewBox="0 0 20 20" fill="none" xmlns="http://www.w3.org/2000/svg">
<path d="M13.565 1.66675C14.5283 1.66675 15.3092 2.43925 15.3092 3.39175V13.8092C15.3159 13.9689 15.3842 14.1196 15.4999 14.2298C15.6155 14.3401 15.7694 14.4011 15.9292 14.4001C16.0888 14.4009 16.2425 14.3397 16.3579 14.2296C16.4734 14.1194 16.5416 13.9687 16.5483 13.8092V7.58258C16.5495 7.35714 16.5951 7.13415 16.6825 6.92634C16.7699 6.71852 16.8973 6.52995 17.0576 6.37139C17.2179 6.21284 17.4078 6.0874 17.6165 6.00224C17.8253 5.91708 18.0487 5.87387 18.2742 5.87508C18.4997 5.87388 18.7232 5.91711 18.932 6.00232C19.1408 6.08753 19.3307 6.21304 19.491 6.37169C19.6513 6.53033 19.7787 6.719 19.8661 6.92691C19.9534 7.13483 19.9989 7.35791 20 7.58342V13.0509C19.9991 13.1942 19.9414 13.3313 19.8395 13.4321C19.7377 13.5329 19.6 13.5891 19.4567 13.5884C19.3856 13.5889 19.3152 13.5753 19.2494 13.5485C19.1837 13.5217 19.1238 13.4823 19.0733 13.4324C19.0227 13.3825 18.9825 13.3231 18.9549 13.2576C18.9274 13.1922 18.9129 13.1219 18.9125 13.0509V7.58342C18.9121 7.50003 18.8952 7.41754 18.8629 7.34066C18.8306 7.26379 18.7834 7.19403 18.7242 7.13538C18.6649 7.07672 18.5946 7.03031 18.5174 6.99881C18.4402 6.9673 18.3576 6.95131 18.2742 6.95175C18.1908 6.95131 18.1081 6.9673 18.0309 6.99881C17.9537 7.03031 17.8834 7.07672 17.8242 7.13538C17.7649 7.19403 17.7178 7.26379 17.6854 7.34066C17.6531 7.41754 17.6363 7.50003 17.6358 7.58342V13.8101C17.6346 14.033 17.5895 14.2535 17.5031 14.459C17.4167 14.6645 17.2907 14.8509 17.1322 15.0077C16.9737 15.1645 16.7859 15.2885 16.5795 15.3727C16.3731 15.4569 16.1521 15.4996 15.9292 15.4984C15.7062 15.4996 15.4853 15.4569 15.2789 15.3727C15.0724 15.2885 14.8846 15.1645 14.7262 15.0077C14.5677 14.8509 14.4416 14.6645 14.3552 14.459C14.2688 14.2535 14.2237 14.033 14.2225 13.8101V3.39341C14.2156 3.22415 14.1433 3.06416 14.0208 2.94712C13.8983 2.83009 13.7352 2.76513 13.5658 2.76591C13.3964 2.7649 13.2332 2.82965 13.1106 2.94653C12.988 3.06342 12.9155 3.22332 12.9083 3.39258L12.9075 16.6459C12.9049 17.096 12.7236 17.5266 12.4035 17.843C12.0835 18.1595 11.6509 18.3359 11.2008 18.3334C10.9779 18.3346 10.7569 18.2919 10.5505 18.2077C10.3441 18.1235 10.1563 17.9995 9.99783 17.8427C9.83935 17.6859 9.7133 17.4995 9.62688 17.294C9.54046 17.0885 9.49537 16.868 9.49417 16.6451V15.0334C9.49417 14.7367 9.7375 14.4959 10.0375 14.4959C10.3375 14.4959 10.5808 14.7367 10.5808 15.0334V16.6451C10.5808 16.8642 10.6992 17.0667 10.8908 17.1767C11.0825 17.2859 11.3192 17.2859 11.5108 17.1767C11.6049 17.1234 11.6831 17.0461 11.7376 16.9527C11.792 16.8594 11.8208 16.7532 11.8208 16.6451V3.39175C11.8208 2.43925 12.6017 1.66675 13.565 1.66675ZM8.83667 1.66675C9.8 1.66675 10.5808 2.43925 10.5808 3.39175V12.9942C10.5805 13.0652 10.5662 13.1355 10.5387 13.2009C10.5112 13.2663 10.4711 13.3257 10.4206 13.3757C10.3701 13.4256 10.3103 13.4651 10.2446 13.4918C10.1789 13.5186 10.1085 13.5322 10.0375 13.5317C9.96652 13.5322 9.89614 13.5186 9.8304 13.4918C9.76467 13.4651 9.70485 13.4256 9.65439 13.3757C9.60392 13.3257 9.5638 13.2663 9.53631 13.2009C9.50881 13.1355 9.49449 13.0652 9.49417 12.9942V3.39175C9.49306 3.2184 9.4232 3.05257 9.29992 2.93069C9.17664 2.80882 9.01002 2.74086 8.83667 2.74175C8.66331 2.74086 8.4967 2.80882 8.37341 2.93069C8.25013 3.05257 8.18027 3.2184 8.17917 3.39175V15.0692C8.17652 15.5242 7.99335 15.9596 7.66989 16.2796C7.34644 16.5996 6.90917 16.7781 6.45417 16.7759C5.99902 16.7784 5.56153 16.5999 5.2379 16.2799C4.91427 15.9599 4.73098 15.5244 4.72833 15.0692V7.58342C4.7279 7.50003 4.71104 7.41754 4.67872 7.34066C4.64641 7.26379 4.59927 7.19403 4.53999 7.13538C4.48072 7.07672 4.41047 7.03031 4.33326 6.99881C4.25605 6.9673 4.17339 6.95131 4.09 6.95175C4.00661 6.95131 3.92395 6.9673 3.84674 6.99881C3.76953 7.03031 3.69928 7.07672 3.64001 7.13538C3.58073 7.19403 3.53359 7.26379 3.50128 7.34066C3.46896 7.41754 3.4521 7.50003 3.45167 7.58342V10.7501C3.45047 10.9755 3.40487 11.1985 3.31749 11.4063C3.23011 11.6141 3.10265 11.8027 2.94239 11.9613C2.78213 12.1198 2.59221 12.2453 2.38347 12.3304C2.17474 12.4156 1.95127 12.4588 1.72583 12.4576C1.5004 12.4588 1.27693 12.4156 1.06819 12.3304C0.859454 12.2453 0.669534 12.1198 0.509275 11.9613C0.349016 11.8027 0.221556 11.6141 0.134175 11.4063C0.0467933 11.1985 0.00120057 10.9755 0 10.7501L0 9.60175C0 9.30425 0.243333 9.06342 0.543333 9.06342C0.843333 9.06342 1.0875 9.30508 1.0875 9.60175V10.7501C1.0875 11.0984 1.37333 11.3809 1.72583 11.3809C2.07833 11.3809 2.36417 11.0984 2.36417 10.7501V7.58258C2.36681 7.12758 2.54999 6.69224 2.87344 6.37223C3.19689 6.05221 3.63416 5.8737 4.08917 5.87592C4.54431 5.87348 4.9818 6.05189 5.30543 6.37193C5.62907 6.69197 5.81236 7.12744 5.815 7.58258V15.0692C5.815 15.4184 6.10083 15.7009 6.45417 15.7009C6.80667 15.7009 7.0925 15.4184 7.0925 15.0692V3.39175C7.0925 2.43925 7.87333 1.66675 8.83667 1.66675Z" fill="url(#paint0_linear_929_6404)"/>
<defs>
<linearGradient id="paint0_linear_929_6404" x1="0" y1="10.0096" x2="20.0364" y2="10.0096" gradientUnits="userSpaceOnUse">
<stop stop-color="#E2167E"/>
<stop offset="1" stop-color="#FE603C"/>
</linearGradient>
</defs>
</svg>
