<svg width="20" height="20" viewBox="0 0 20 20" fill="none" xmlns="http://www.w3.org/2000/svg">
<path d="M4.99762 5.46497H2.85387C2.78153 5.46491 2.71045 5.48388 2.64775 5.51997C2.58506 5.55606 2.53296 5.60801 2.49668 5.67059L1.30512 7.73434C1.26901 7.79708 1.25 7.8682 1.25 7.94059C1.25 8.01298 1.26901 8.0841 1.30512 8.14684L6.19387 16.6043H8.57043L12.1011 13.6387L4.99793 5.46497H4.99762Z" fill="#615CED"/>
<path d="M3.56913 12.0656L2.49694 13.9218C2.46056 13.9846 2.44141 14.0559 2.44141 14.1285C2.44141 14.2011 2.46056 14.2724 2.49694 14.3353L3.68819 16.3978C3.76038 16.5259 3.89757 16.6053 4.04475 16.6043H8.57038L3.56819 12.0656H3.56913ZM16.4326 7.939L17.5038 6.08307C17.5401 6.02028 17.5593 5.94904 17.5593 5.8765C17.5593 5.80397 17.5401 5.73272 17.5038 5.66994L16.3126 3.60744C16.2764 3.54486 16.2245 3.49285 16.162 3.45661C16.0995 3.42036 16.0286 3.40115 15.9563 3.40088L6.18663 3.40525L4.99788 5.46307L5.801 10.0049L16.4326 7.93807V7.939Z" fill="#615CED"/>
<path d="M11.4284 3.40159L10.3571 1.54534C10.3211 1.48239 10.2692 1.43004 10.2065 1.39356C10.1439 1.35707 10.0727 1.33775 10.0002 1.33752H7.61742C7.54495 1.33748 7.47376 1.35667 7.41112 1.39312C7.34848 1.42957 7.29663 1.48199 7.26086 1.54502L6.17773 3.42065L4.99805 5.46315L11.429 3.40159H11.4284ZM8.57117 16.6053L9.64148 18.4619C9.67795 18.5246 9.73028 18.5765 9.79321 18.6125C9.85613 18.6485 9.92743 18.6672 9.99992 18.6669H12.3827C12.4549 18.6667 12.5258 18.6475 12.5883 18.6114C12.6508 18.5753 12.7028 18.5234 12.739 18.461L17.6202 9.99784L16.4324 7.93971L12.0974 6.36565L8.57117 16.6044V16.6053Z" fill="#615CED"/>
<path d="M15.002 14.5413H17.1457C17.2181 14.5412 17.2893 14.5221 17.352 14.4858C17.4147 14.4496 17.4667 14.3974 17.5029 14.3347L18.6945 12.2722C18.7311 12.2095 18.7504 12.1381 18.7504 12.0655C18.7504 11.9928 18.7311 11.9215 18.6945 11.8588L17.6113 9.98313L16.4316 7.9397L15.002 14.5413Z" fill="#615CED"/>
<path d="M8.83644 16.1846L4.08332 16.2028L5.26145 14.1421L7.64144 14.1331L2.84863 5.9109L5.22895 5.90527L10.0168 14.1187L8.83613 16.1837V16.1846H8.83644Z" fill="white"/>
<path d="M5.22754 5.90466L7.58754 1.77966L8.78348 3.82966L7.60316 5.89466L17.1197 5.8556L15.9329 7.91998L6.42691 7.95873L5.22754 5.90466Z" fill="white"/>
<path d="M15.9337 7.9187L18.3256 12.0256L15.9525 12.0356L14.755 9.98058L10.0309 18.2418L8.83594 16.1828L13.5547 7.92964L15.9347 7.91901H15.9337V7.9187Z" fill="white"/>
<path d="M10.0161 14.1169L13.5543 7.93005L6.42676 7.9588L10.0161 14.1169Z" fill="#605BEC"/>
<path d="M10.0163 14.1168L5.22852 5.90371L5.46508 5.49121L10.2526 13.7046L10.0166 14.1178V14.1168H10.0163Z" fill="#605BEC"/>
<path d="M6.42676 7.96059L15.9336 7.9209L16.1727 8.33152L6.66582 8.37121L6.42676 7.96059Z" fill="#605BEC"/>
<path d="M13.5557 7.93005L8.83699 16.1822L8.3623 16.1838L13.0811 7.93162L13.5561 7.93005H13.5557Z" fill="#605BEC"/>
</svg>
