<svg width="24" height="24" viewBox="0 0 24 24" fill="none" xmlns="http://www.w3.org/2000/svg">
<g clip-path="url(#clip0_929_6091)">
<path d="M11.9922 21.5859C11.9651 21.5854 11.9382 21.5905 11.9131 21.6007C11.888 21.611 11.8652 21.6263 11.8462 21.6456C11.8272 21.6649 11.8123 21.6879 11.8025 21.7132C11.7926 21.7385 11.788 21.7655 11.7889 21.7926C11.7879 21.8197 11.7924 21.8468 11.8022 21.8722C11.812 21.8976 11.8269 21.9207 11.8459 21.9401C11.8649 21.9595 11.8877 21.9748 11.9129 21.9851C11.938 21.9955 11.965 22.0005 11.9922 22.0001C12.0195 22.0007 12.0466 21.9957 12.0718 21.9854C12.0971 21.9751 12.12 21.9598 12.1391 21.9404C12.1582 21.9209 12.1732 21.8978 12.183 21.8724C12.1929 21.847 12.1974 21.8198 12.1964 21.7926C12.1981 21.7413 12.18 21.6913 12.1458 21.653C12.1117 21.6147 12.0642 21.591 12.0131 21.5867L11.9922 21.5859ZM10.0589 6.4709C10.4158 6.58523 10.7128 6.83657 10.8845 7.16971C11.0562 7.50284 11.0887 7.89052 10.9747 8.24757L10.9156 8.3909L10.9022 8.42423L10.8872 8.46923C10.8289 8.60257 10.8006 8.7359 10.8006 8.88423C10.7714 9.4759 11.1922 9.95007 11.7889 9.97923H12.0939C13.1847 10.0234 14.0422 10.9567 13.9989 12.0817C13.9556 13.1917 13.0389 14.0651 11.9339 14.0209H11.7889C11.1931 14.0359 10.7272 14.5542 10.7564 15.1609C10.7564 15.2642 10.7714 15.3526 10.8006 15.4417C10.9747 15.7526 11.2506 15.9901 11.6006 16.1084C12.2256 16.3001 12.8647 16.0042 13.1839 15.4567L13.1989 15.4276C13.5339 14.8942 14.1739 14.6276 14.7989 14.8351C15.5106 15.0717 15.9472 15.8567 15.7147 16.6409C15.6615 16.8149 15.5745 16.9768 15.4587 17.1172C15.3429 17.2576 15.2005 17.3737 15.0398 17.459C14.879 17.5443 14.703 17.5971 14.5218 17.6143C14.3406 17.6315 14.1578 17.6128 13.9839 17.5592C13.671 17.4551 13.4039 17.2457 13.2281 16.9667L13.2139 16.9376C13.0472 16.6684 12.8281 16.4542 12.5047 16.3451L12.4581 16.3301C12.1567 16.2289 11.8295 16.2356 11.5325 16.349C11.2354 16.4624 10.987 16.6755 10.8297 16.9517C10.7328 17.1125 10.6041 17.2519 10.4515 17.3614C10.2989 17.4708 10.1256 17.5481 9.94223 17.5884C9.58119 17.6657 9.20421 17.5971 8.89364 17.3974C8.58308 17.1976 8.36417 16.8832 8.28473 16.5226C8.11056 15.7676 8.56139 14.9976 9.33223 14.8201C9.41329 14.8022 9.49591 14.7925 9.57889 14.7909H9.59389C10.1606 14.7317 10.5531 14.2726 10.5239 13.6801C10.5169 13.4735 10.4513 13.2732 10.3347 13.1026C10.1205 12.7512 10.0144 12.3446 10.0297 11.9334C10.0393 11.5766 10.1447 11.2289 10.3347 10.9267C10.4514 10.7642 10.5097 10.5567 10.5239 10.3492C10.5389 9.75757 10.1022 9.2984 9.53556 9.23923L9.47723 9.22423C9.39232 9.21379 9.30878 9.19423 9.22806 9.1659L9.18639 9.15007C8.84128 9.02638 8.55755 8.77373 8.39484 8.4452C8.23214 8.11668 8.20312 7.73787 8.31389 7.3884C8.42498 7.03625 8.67068 6.74225 8.99751 6.57041C9.32434 6.39857 9.70582 6.3628 10.0589 6.4709ZM5.41306 14.8959C5.62973 14.6759 5.94556 14.5901 6.24139 14.6709C6.53723 14.7509 6.76889 14.9867 6.84806 15.2876C6.92723 15.5892 6.84223 15.9109 6.62556 16.1317C6.29056 16.4734 5.74806 16.4734 5.41306 16.1317C5.2521 15.9665 5.16203 15.7449 5.16203 15.5142C5.16203 15.2835 5.2521 15.0611 5.41306 14.8959ZM17.7839 14.6509C18.0831 14.5759 18.3989 14.6709 18.6106 14.8984C18.8222 15.1267 18.8972 15.4526 18.8081 15.7526C18.7189 16.0526 18.4781 16.2809 18.1781 16.3509C17.7189 16.4576 17.2614 16.1676 17.1531 15.7001C17.0999 15.4773 17.1362 15.2426 17.2541 15.0463C17.372 14.85 17.5623 14.7085 17.7839 14.6509ZM17.7306 10.9926C17.9922 11.2592 18.1389 11.6201 18.1389 11.9976C18.1389 12.3742 17.9922 12.7359 17.7306 13.0026C17.4681 13.2692 17.1139 13.4192 16.7431 13.4192C16.3731 13.4192 16.0181 13.2692 15.7564 13.0026C15.4941 12.7338 15.3474 12.3731 15.3474 11.9976C15.3474 11.622 15.4941 11.2614 15.7564 10.9926C15.8848 10.8608 16.0383 10.7561 16.2078 10.6846C16.3774 10.6131 16.5595 10.5762 16.7435 10.5762C16.9275 10.5762 17.1096 10.6131 17.2791 10.6846C17.4486 10.7561 17.6021 10.8608 17.7306 10.9926ZM8.36139 11.1284C8.66473 11.5317 8.73389 12.0684 8.54306 12.5376C8.47514 12.7088 8.3738 12.8648 8.24496 12.9964C8.11611 13.1281 7.96235 13.2328 7.79262 13.3043C7.6229 13.3759 7.44062 13.413 7.25642 13.4134C7.07221 13.4138 6.88977 13.3776 6.71973 13.3067C6.00723 13.0067 5.66973 12.1751 5.96389 11.4501C6.05595 11.221 6.20696 11.0203 6.40161 10.8684C6.59625 10.7164 6.82762 10.6187 7.07223 10.5851C7.56639 10.5184 8.05806 10.7259 8.36139 11.1284ZM17.9822 7.6109C18.2889 7.6109 18.5722 7.77757 18.7256 8.04757C18.8789 8.31757 18.8789 8.6509 18.7256 8.9209C18.6514 9.05301 18.5436 9.16305 18.413 9.23978C18.2824 9.3165 18.1337 9.35715 17.9822 9.35757C17.5089 9.35757 17.1239 8.9659 17.1239 8.48423C17.1239 8.00173 17.5089 7.6109 17.9822 7.6109ZM6.01723 7.6109C6.32389 7.6109 6.60639 7.77757 6.75973 8.04757C6.91306 8.31757 6.91306 8.6509 6.75973 8.9209C6.68568 9.05288 6.57793 9.16285 6.44749 9.23957C6.31704 9.31629 6.16856 9.357 6.01723 9.35757C5.54306 9.35757 5.15889 8.9659 5.15889 8.48423C5.15889 8.00173 5.54306 7.6109 6.01723 7.6109ZM14.3764 6.38173C15.1472 6.38173 15.7722 7.0184 15.7722 7.8034C15.7722 8.5884 15.1472 9.22423 14.3764 9.22423C13.6056 9.22423 12.9814 8.5884 12.9814 7.8034C12.9814 7.0184 13.6064 6.38173 14.3764 6.38173ZM12.1881 5.81173C12.4897 5.7434 12.7322 5.51507 12.8222 5.2134C12.8667 5.06571 12.8718 4.90896 12.837 4.75869C12.8022 4.60843 12.7287 4.46986 12.6239 4.35673C12.5203 4.24509 12.3886 4.16342 12.2425 4.12031C12.0965 4.07719 11.9415 4.07423 11.7939 4.11173C11.3381 4.2284 11.0597 4.69507 11.1672 5.15923C11.2756 5.62423 11.7297 5.91507 12.1881 5.81173ZM12.1881 19.8751C12.4872 19.8026 12.7247 19.5751 12.8131 19.2751C12.8562 19.1285 12.8607 18.9733 12.8261 18.8245C12.7915 18.6757 12.719 18.5384 12.6156 18.4259C12.5134 18.3149 12.3835 18.2331 12.2392 18.189C12.0949 18.1449 11.9415 18.1401 11.7947 18.1751C11.6454 18.2094 11.5079 18.2829 11.3963 18.3879C11.2848 18.4929 11.2031 18.6256 11.1597 18.7726C11.0697 19.0734 11.1456 19.4009 11.3589 19.6292C11.5631 19.8484 11.8639 19.9434 12.1531 19.8834L12.1889 19.8751H12.1881ZM16.3247 4.91673C16.3942 4.91641 16.4629 4.90232 16.5269 4.87528C16.5909 4.84824 16.6489 4.80878 16.6976 4.75919C16.7463 4.7096 16.7846 4.65085 16.8104 4.58635C16.8363 4.52185 16.8491 4.45287 16.8481 4.3834C16.8481 4.08757 16.6156 3.85007 16.3247 3.85007C16.2552 3.85039 16.1865 3.86448 16.1225 3.89152C16.0585 3.91856 16.0005 3.95802 15.9519 4.00761C15.9032 4.0572 15.8648 4.11594 15.839 4.18045C15.8132 4.24495 15.8004 4.31393 15.8014 4.3834C15.8014 4.67923 16.0347 4.91673 16.3247 4.91673ZM7.67473 4.91673C7.74421 4.91641 7.81293 4.90232 7.87693 4.87528C7.94093 4.84824 7.99894 4.80878 8.0476 4.75919C8.09627 4.7096 8.13462 4.65085 8.16044 4.58635C8.18627 4.52185 8.19905 4.45287 8.19806 4.3834C8.19806 4.08757 7.96473 3.85007 7.67473 3.85007C7.60525 3.85039 7.53652 3.86448 7.47252 3.89152C7.40852 3.91856 7.35051 3.95802 7.30185 4.00761C7.25319 4.0572 7.21484 4.11594 7.18901 4.18045C7.16319 4.24495 7.1504 4.31393 7.15139 4.3834C7.15139 4.67923 7.38389 4.91673 7.67473 4.91673ZM3.35639 11.4601C3.28692 11.4604 3.21819 11.4745 3.15419 11.5015C3.09019 11.5286 3.03218 11.568 2.98352 11.6176C2.93486 11.6672 2.89651 11.7259 2.87068 11.7904C2.84486 11.8549 2.83207 11.9239 2.83306 11.9934C2.83306 12.2884 3.06639 12.5259 3.35639 12.5259C3.4918 12.5254 3.62176 12.4725 3.71913 12.3784C3.8165 12.2843 3.87374 12.1562 3.87889 12.0209L3.87973 11.9926C3.88199 11.9228 3.87007 11.8532 3.8447 11.7882C3.81933 11.7231 3.78103 11.6638 3.73211 11.614C3.6832 11.5641 3.62468 11.5247 3.56011 11.4981C3.49553 11.4715 3.42623 11.4583 3.35639 11.4592V11.4601ZM7.67473 19.0684C7.60525 19.0687 7.53652 19.0828 7.47252 19.1099C7.40852 19.1369 7.35051 19.1763 7.30185 19.2259C7.25319 19.2755 7.21484 19.3343 7.18901 19.3988C7.16319 19.4633 7.1504 19.5323 7.15139 19.6017C7.15139 19.8976 7.38389 20.1351 7.67473 20.1351C7.74421 20.1347 7.81293 20.1207 7.87693 20.0936C7.94093 20.0666 7.99894 20.0271 8.0476 19.9775C8.09627 19.9279 8.13462 19.8692 8.16044 19.8047C8.18627 19.7402 8.19905 19.6712 8.19806 19.6017C8.19806 19.3059 7.96473 19.0684 7.67473 19.0684ZM16.3247 19.0834C16.2552 19.0837 16.1865 19.0978 16.1225 19.1249C16.0585 19.1519 16.0005 19.1914 15.9519 19.2409C15.9032 19.2905 15.8648 19.3493 15.839 19.4138C15.8132 19.4783 15.8004 19.5473 15.8014 19.6167C15.8014 19.9126 16.0347 20.1501 16.3247 20.1501C16.3942 20.1497 16.4629 20.1357 16.5269 20.1086C16.5909 20.0816 16.6489 20.0421 16.6976 19.9925C16.7463 19.9429 16.7846 19.8842 16.8104 19.8197C16.8363 19.7552 16.8491 19.6862 16.8481 19.6167C16.8481 19.3209 16.6156 19.0834 16.3247 19.0834ZM20.6431 11.4601C20.5736 11.4604 20.5049 11.4745 20.4409 11.5015C20.3769 11.5286 20.3188 11.568 20.2702 11.6176C20.2215 11.6672 20.1832 11.7259 20.1573 11.7904C20.1315 11.8549 20.1187 11.9239 20.1197 11.9934C20.1197 12.2884 20.3522 12.5259 20.6431 12.5259C20.7125 12.5256 20.7813 12.5115 20.8453 12.4844C20.9093 12.4574 20.9673 12.4179 21.0159 12.3684C21.0646 12.3188 21.103 12.26 21.1288 12.1955C21.1546 12.131 21.1674 12.062 21.1664 11.9926C21.1664 11.6967 20.9331 11.4592 20.6431 11.4592V11.4601ZM20.3231 7.30007C20.3502 7.30054 20.3772 7.29546 20.4024 7.28515C20.4276 7.27483 20.4504 7.2595 20.4694 7.24008C20.4884 7.22065 20.5033 7.19756 20.5131 7.17219C20.5229 7.14683 20.5274 7.11974 20.5264 7.09257C20.5274 7.06539 20.5229 7.0383 20.5131 7.01294C20.5033 6.98757 20.4884 6.96448 20.4694 6.94506C20.4504 6.92563 20.4276 6.9103 20.4024 6.89998C20.3772 6.88967 20.3502 6.88459 20.3231 6.88507C20.2959 6.88459 20.2689 6.88967 20.2437 6.89998C20.2186 6.9103 20.1958 6.92563 20.1767 6.94506C20.1577 6.96448 20.1428 6.98757 20.133 7.01294C20.1232 7.0383 20.1187 7.06539 20.1197 7.09257C20.1197 7.2109 20.2214 7.30007 20.3231 7.30007ZM11.9922 2.41423C12.0194 2.41481 12.0464 2.40985 12.0716 2.39964C12.0968 2.38942 12.1197 2.37418 12.1388 2.35484C12.1579 2.33549 12.1729 2.31246 12.1828 2.28714C12.1927 2.26182 12.1973 2.23474 12.1964 2.20757C12.1974 2.18025 12.1929 2.15301 12.1829 2.12754C12.173 2.10206 12.158 2.07888 12.1388 2.05944C12.1196 2.03999 12.0966 2.02469 12.0713 2.01448C12.0459 2.00427 12.0187 1.99936 11.9914 2.00007C11.9642 1.99959 11.9372 2.00467 11.9121 2.01498C11.8869 2.0253 11.8641 2.04064 11.8451 2.06006C11.826 2.07948 11.8112 2.10257 11.8014 2.12794C11.7916 2.1533 11.787 2.18039 11.7881 2.20757C11.7881 2.3184 11.8781 2.40423 11.9739 2.4134L11.9914 2.41423H11.9922ZM3.67556 7.30007C3.70282 7.30065 3.72991 7.29566 3.75516 7.2854C3.78042 7.27514 3.80331 7.25982 3.82243 7.24038C3.84155 7.22095 3.8565 7.19781 3.86635 7.17239C3.8762 7.14697 3.88076 7.11981 3.87973 7.09257C3.88075 7.06539 3.87622 7.0383 3.86642 7.01294C3.85662 6.98757 3.84175 6.96448 3.82272 6.94506C3.80369 6.92563 3.7809 6.9103 3.75574 6.89998C3.73058 6.88967 3.70358 6.88459 3.67639 6.88507C3.64921 6.88459 3.62221 6.88967 3.59705 6.89998C3.57189 6.9103 3.5491 6.92563 3.53007 6.94506C3.51104 6.96448 3.49617 6.98757 3.48637 7.01294C3.47657 7.0383 3.47204 7.06539 3.47306 7.09257C3.47204 7.11974 3.47657 7.14683 3.48637 7.17219C3.49617 7.19756 3.51104 7.22065 3.53007 7.24008C3.5491 7.2595 3.57189 7.27483 3.59705 7.28515C3.62221 7.29546 3.64921 7.30054 3.67639 7.30007H3.67556ZM3.67556 16.6859C3.64852 16.6855 3.62168 16.6907 3.59668 16.701C3.57168 16.7113 3.54902 16.7266 3.5301 16.7459C3.51117 16.7652 3.49635 16.7882 3.48655 16.8134C3.47675 16.8386 3.47216 16.8655 3.47306 16.8926C3.47204 16.9197 3.47657 16.9468 3.48637 16.9722C3.49617 16.9976 3.51104 17.0207 3.53007 17.0401C3.5491 17.0595 3.57189 17.0748 3.59705 17.0851C3.62221 17.0955 3.64921 17.1005 3.67639 17.1001C3.70358 17.1005 3.73058 17.0955 3.75574 17.0851C3.7809 17.0748 3.80369 17.0595 3.82272 17.0401C3.84175 17.0207 3.85662 16.9976 3.86642 16.9722C3.87622 16.9468 3.88075 16.9197 3.87973 16.8926C3.8789 16.8386 3.85731 16.787 3.81945 16.7485C3.78158 16.71 3.73035 16.6876 3.67639 16.6859H3.67556ZM20.3381 16.6709C20.3109 16.6703 20.2839 16.6753 20.2587 16.6855C20.2335 16.6957 20.2106 16.711 20.1915 16.7303C20.1724 16.7496 20.1574 16.7727 20.1475 16.798C20.1376 16.8233 20.133 16.8504 20.1339 16.8776C20.1327 16.9049 20.1372 16.9321 20.147 16.9577C20.1568 16.9832 20.1717 17.0064 20.1909 17.0259C20.21 17.0455 20.2329 17.0609 20.2583 17.0712C20.2836 17.0815 20.3107 17.0865 20.3381 17.0859C20.3653 17.0864 20.3924 17.0813 20.4176 17.0709C20.4428 17.0605 20.4657 17.0451 20.4847 17.0256C20.5037 17.0061 20.5186 16.9829 20.5283 16.9575C20.5381 16.932 20.5425 16.9048 20.5414 16.8776C20.5406 16.8236 20.519 16.772 20.4811 16.7335C20.4433 16.695 20.392 16.6726 20.3381 16.6709Z" fill="#3859FF"/>
</g>
<defs>
<clipPath id="clip0_929_6091">
<rect width="20" height="20" fill="white" transform="translate(2 2)"/>
</clipPath>
</defs>
</svg>
